<svg width="30" height="30" viewBox="0 0 30 30" fill="none" xmlns="http://www.w3.org/2000/svg">
<path d="M19.5802 23.7657C22.8073 22.1697 25.0265 18.844 25.0265 15C25.0265 11.156 22.8073 7.83031 19.5802 6.23427C19.7025 6.22921 19.8254 6.22665 19.949 6.22665C24.7944 6.22665 28.7223 10.1546 28.7223 15C28.7223 19.8454 24.7944 23.7733 19.949 23.7733C19.8254 23.7733 19.7025 23.7708 19.5802 23.7657Z" fill="#D9D9D9" fill-opacity="0.6"/>
<path d="M14.5323 23.7657C17.7595 22.1697 19.9787 18.844 19.9787 15C19.9787 11.156 17.7595 7.83031 14.5323 6.23427C14.6546 6.22921 14.7776 6.22665 14.9011 6.22665C19.7465 6.22665 23.6745 10.1546 23.6745 15C23.6745 19.8454 19.7465 23.7733 14.9011 23.7733C14.7776 23.7733 14.6546 23.7708 14.5323 23.7657Z" fill="#D9D9D9" fill-opacity="0.8"/>
<path fill-rule="evenodd" clip-rule="evenodd" d="M10.051 23.7733C14.8964 23.7733 18.8244 19.8454 18.8244 15C18.8244 10.1546 14.8964 6.22665 10.051 6.22665C5.20564 6.22665 1.27768 10.1546 1.27768 15C1.27768 19.8454 5.20564 23.7733 10.051 23.7733ZM11.5564 9.74069C11.3326 10.1382 10.7471 10.4218 10.06 10.4218C9.37286 10.4218 8.78732 10.1382 8.56359 9.74069C8.54265 9.74633 8.52183 9.75209 8.50114 9.75796L8.49893 9.75229L8.41125 9.78441C8.25023 9.83351 8.09736 9.88959 7.95402 9.95189L7.05462 10.2813L4.07736 11.8577L4.96919 13.8846L6.56553 13.4477L6.28122 20.2593H13.7455L13.498 13.4372L15.1328 13.8846L16.0246 11.8577L13.0473 10.2813L12.2462 9.98788C12.054 9.89895 11.8432 9.82152 11.6175 9.75757L11.603 9.75229L11.6026 9.75339L11.5564 9.74069Z" fill="#D9D9D9"/>
</svg>
