<svg width="30" height="30" viewBox="0 0 30 30" fill="none" xmlns="http://www.w3.org/2000/svg">
<path d="M19.5802 23.7657C22.8073 22.1697 25.0265 18.844 25.0265 15C25.0265 11.156 22.8073 7.83031 19.5802 6.23427C19.7025 6.22921 19.8254 6.22665 19.949 6.22665C24.7944 6.22665 28.7223 10.1546 28.7223 15C28.7223 19.8454 24.7944 23.7733 19.949 23.7733C19.8254 23.7733 19.7025 23.7708 19.5802 23.7657Z" fill="#D9D9D9" fill-opacity="0.6"/>
<path d="M14.5323 23.7657C17.7595 22.1697 19.9787 18.844 19.9787 15C19.9787 11.156 17.7595 7.83031 14.5323 6.23427C14.6546 6.22921 14.7776 6.22665 14.9011 6.22665C19.7465 6.22665 23.6745 10.1546 23.6745 15C23.6745 19.8454 19.7465 23.7733 14.9011 23.7733C14.7776 23.7733 14.6546 23.7708 14.5323 23.7657Z" fill="#D9D9D9" fill-opacity="0.8"/>
<path fill-rule="evenodd" clip-rule="evenodd" d="M18.8244 15C18.8244 19.8454 14.8964 23.7733 10.051 23.7733C5.20564 23.7733 1.27768 19.8454 1.27768 15C1.27768 10.1546 5.20564 6.22665 10.051 6.22665C14.8964 6.22665 18.8244 10.1546 18.8244 15ZM12.1625 14.6223L15.3327 15.873L12.1625 17.1236C11.2131 17.4977 10.4624 18.2484 10.0884 19.1977L8.83771 22.368L7.58702 19.1977C7.21299 18.2484 6.46231 17.4977 5.51293 17.1236L2.34531 15.873L5.51553 14.6223C6.46491 14.2482 7.21558 13.4976 7.58962 12.5482L8.84031 9.37796L10.091 12.5482C10.465 13.4976 11.2157 14.2482 12.1651 14.6223H12.1625ZM16.3222 11.2586L14.8884 10.6936C14.4598 10.5248 14.1196 10.1845 13.9507 9.75592L13.3858 8.32211L12.8208 9.75592C12.652 10.1845 12.3117 10.5248 11.8831 10.6936L10.4493 11.2586L11.8831 11.8235C12.3117 11.9924 12.652 12.3326 12.8208 12.7612L13.3858 14.195L13.9507 12.7612C14.1196 12.3326 14.4598 11.9924 14.8884 11.8235L16.3222 11.2586Z" fill="#D9D9D9"/>
</svg>
