<svg width="161" height="196" viewBox="0 0 161 196" fill="none" xmlns="http://www.w3.org/2000/svg">
<path d="M160.381 160.531L2.39014 160.486C3.00916 158.102 4.06779 156.71 4.9111 155.88C8.65218 152.189 15.7979 152.113 15.7979 152.113C15.8742 151.126 16.0805 149.787 16.5874 148.277C16.7579 147.786 17.3679 146.038 18.7181 144.113C20.1535 142.049 22.8046 138.245 26.6488 137.736C29.2999 137.385 32.1662 138.646 34.0144 139.683C35.212 140.355 36.7058 140.102 37.6119 139.07C37.6433 139.034 37.6702 139.003 37.7016 138.966C38.1591 138.444 38.361 137.75 38.2623 137.06C38.1816 136.501 38.0874 135.843 37.9842 135.104C37.3203 130.44 37.3652 130.066 37.1678 128.979C36.8224 127.114 35.6786 124.91 33.3908 120.511C31.8522 117.546 29.9234 114.152 29.8113 113.945C32.3816 115.356 34.0188 116.942 35.0595 118.172C36.6699 120.083 38.5359 123.157 41.0121 124.076C41.3889 124.216 41.8464 124.337 42.3533 124.225C43.6272 123.95 44.3494 122.454 44.6993 121.719C45.3722 120.335 45.3273 119.439 45.6548 119.412C46.1213 119.376 46.1975 121.174 47.7182 122.593C48.0456 122.895 48.8351 123.63 49.4362 123.405C50.1764 123.13 50.1943 121.575 50.2033 121.151C50.2481 118.353 48.3866 115.689 47.2786 114.896C47.2786 114.896 47.0139 114.707 47.0453 114.652C47.1126 114.522 48.7992 115.811 50.7774 115.662C51.3382 115.617 52.1635 115.558 52.6435 114.986C53.3163 114.193 52.7556 113.093 52.0245 110.078C51.226 106.788 51.3202 105.783 50.589 104.012C50.2212 103.124 49.5842 101.583 48.9204 100.902C48.9024 100.884 48.7992 100.763 48.8172 100.745C48.8531 100.69 49.3061 100.943 52.1725 102.809C53.3343 103.57 53.8143 103.899 54.4153 103.769C55.0792 103.638 55.4829 103.052 55.613 102.863C57.1247 100.65 53.7918 93.6104 53.0741 92.078C50.7102 87.0079 48.4987 81.086 47.9918 78.6929C47.3459 79.3329 46.4442 79.9638 45.2376 80.3154C43.2325 80.8922 41.2812 80.2883 41.1287 80.1666C41.1197 80.1576 41.1018 80.1486 41.0838 80.1486C40.9627 80.1847 41.2543 81.1266 41.1511 81.7711C41.0031 82.6949 40.0342 83.2493 39.303 83.6549C38.6571 84.0244 37.1005 84.9078 35.3287 84.5292C33.2922 84.1056 32.7808 82.411 31.1211 82.6454C30.9147 82.6724 30.3226 82.7671 29.9683 83.2222C29.5466 83.7676 29.735 84.4841 29.8202 85.1827C29.9817 86.6249 29.7081 88.0941 29.3806 88.752C28.331 90.8792 23.2128 91.6138 21.3467 89.6264C19.9292 88.1076 20.0459 84.6058 20.0459 84.6058C18.92 84.1371 17.1885 83.2493 15.5288 81.6088C14.6855 80.7796 12.1914 78.2378 11.5455 74.0645C11.384 73.046 10.9758 69.6073 12.7476 66.2542C12.7476 66.2542 13.721 64.3975 18.579 59.9222C18.579 59.9222 18.5342 59.7735 18.449 59.4896C17.2468 55.456 17.0988 54.9873 17.0629 54.8656C16.4932 52.8962 16.6951 47.7179 20.2298 44.1576C20.4944 43.8917 24.2355 40.2096 28.0573 40.9082C28.0573 40.9082 28.2637 40.9442 31.9195 42.0304C31.7491 41.3904 31.453 39.9302 31.9958 38.2537C32.5206 36.6312 33.5434 35.6893 34.2252 35.0719C34.7321 34.6212 36.5398 32.9898 39.1011 32.8411C41.5683 32.6923 44.2373 33.9542 44.2373 33.9542C43.8605 31.7865 43.5824 28.4695 44.6006 24.7018C44.798 23.9582 45.1613 22.791 46.5878 19.7173C47.3773 18.0048 49.5798 13.2456 51.2081 10.8255C56.1334 3.50197 66.5761 1.47392 68.5453 1.1269C71.2367 0.658199 82.2133 -1.26619 90.7451 5.9852C92.481 7.45441 95.9664 10.3928 97.2404 15.0844C97.2404 15.0844 97.4467 15.864 98.4515 22.489C99.0975 22.4349 100.035 22.3944 101.152 22.4349C103.072 22.5205 104.032 22.5656 104.781 22.9892C106.741 24.1114 107.575 27.0949 107.575 27.0949C108.082 26.6262 108.822 26.0043 109.778 25.3914C110.303 25.0534 112.299 23.7599 114.326 23.3588C117 22.8315 119.247 23.9447 121.481 25.0624C126.245 27.4374 128.793 31.0248 129.327 31.7955C130.453 33.4269 132.498 36.9107 132.861 41.4805C133.126 44.8741 132.498 49.4395 132.494 49.4981C133.104 49.773 133.938 50.1876 134.884 50.787C136.715 51.9633 140.164 54.1671 141.532 58.3494C141.833 59.2733 142.734 62.0314 141.721 64.8977C140.837 67.3854 138.46 70.058 138.46 70.058C138.46 70.058 139.321 71.9418 139.653 73.1496C139.774 73.6093 140.514 76.3224 139.052 78.8191C138.809 79.2247 137.553 81.4195 135.243 81.8161C132.346 82.3164 129.636 79.6303 128.69 77.4355H128.681C128.035 78.5938 127.286 79.2608 126.711 79.6484C123.383 81.9018 117.928 80.4776 115.609 77.7555C115.609 77.7555 115.551 77.6879 113.452 74.9027C113.452 74.9027 112.945 75.8942 112.581 76.3719C112.424 76.5793 111.559 77.4626 110.33 77.6699C109.213 77.8592 108.316 77.3499 106.571 76.3314C106.279 76.1601 105.943 75.9528 105.575 75.7094C105.566 76.435 105.499 76.9128 105.499 76.9128C105.265 78.4946 104.732 79.6258 104.485 80.1441C102.964 83.3259 97.7338 93.9078 98.7924 96.5713C98.8373 96.702 98.9808 97.0445 99.2589 97.1076C99.7569 97.2293 100.143 96.2513 101.461 94.6875C102.762 93.1507 102.605 93.8402 104.498 91.9564C104.575 91.8888 104.714 91.74 104.781 91.7851C105.032 91.9158 103.897 94.1782 102.803 97.4366C102.193 99.2528 102.641 98.2568 101.565 102.006C101.264 103.07 100.721 104.918 101.3 106.585C101.403 106.86 101.551 107.198 101.843 107.284C102.48 107.473 103.341 106.306 103.767 105.72C105.691 103.075 106.656 101.745 107.463 100.172C107.463 100.172 107.463 99.7486 108.006 98.7391C108.549 97.7205 109.63 96.1026 111.801 93.7185C111.671 95.2238 111.456 96.5713 111.218 97.7295C110.976 98.8878 110.702 99.8702 110.451 100.659C108.679 106.265 107.795 109.069 106.118 111.719C105.714 112.349 104.673 113.931 105.18 115.365C105.238 115.527 105.525 116.352 106.23 116.599C107.737 117.136 109.491 114.535 110.159 114.95C110.881 115.41 108.858 118.519 110.159 120.48C110.554 121.093 111.285 121.602 112.025 121.715C115.448 122.251 118.794 114.441 120.171 115.008C121.306 115.482 119.301 120.926 121.4 122.364C121.746 122.607 122.486 122.918 124.204 122.364C130.39 120.367 132.978 112.368 133.871 112.719C134.62 113.012 133.534 118.965 131.525 124.775C130.192 128.628 129.82 130.503 129.075 134.243C128.681 136.177 128.362 138.142 129.479 139.309C130.52 140.391 132.238 140.197 132.35 140.192C135.189 139.845 136.795 136.208 137.15 136.425C137.459 136.614 135.876 139.286 135.566 143.131C135.445 144.65 135.602 145.429 136.091 146.015C136.881 146.948 138.415 147.259 139.487 146.777C140.675 146.249 141.016 144.866 141.25 144.951C141.492 145.055 140.779 146.488 140.837 148.597C140.837 148.597 140.85 148.976 141.182 150.977C141.281 151.563 141.788 151.991 142.38 151.973C142.923 151.96 143.555 151.95 144.255 151.95H144.695C148.342 151.905 150.257 151.892 152.365 152.721C155.057 153.785 156.761 155.727 157.99 157.129C159.107 158.418 159.865 159.626 160.363 160.5C160.372 160.518 160.381 160.527 160.39 160.545L160.381 160.531Z" fill="#EA3800"/>
<path d="M12.6597 187.545H8.90669L5.74769 179.256V187.545H2.18369V169.536H6.04469C7.36769 169.536 8.82569 169.644 9.95969 170.4C11.3907 171.345 12.0927 173.1 12.0927 174.774C12.0927 176.826 11.2827 178.284 9.52769 179.364L12.6597 187.545ZM5.74769 172.344V177.285C5.93669 177.312 6.15269 177.312 6.34169 177.312C7.88069 177.312 8.63669 176.259 8.63669 174.801C8.63669 173.343 7.98869 172.344 6.42269 172.344H5.74769ZM30.135 187.545H26.355L25.68 184.521H22.089L21.441 187.545H17.877L22.089 169.536H25.815L30.135 187.545ZM22.629 181.74H25.14C24.762 180.012 24.384 178.311 24.114 176.556C24.006 175.773 23.898 174.963 23.817 174.18C23.655 176.718 23.142 179.229 22.629 181.74ZM35.399 169.536H38.396C39.719 169.536 40.826 169.59 42.041 170.157C45.254 171.615 46.172 175.422 46.172 178.635C46.172 183.495 44.336 187.545 38.882 187.545H35.399V169.536ZM38.963 184.251H39.071C41.906 184.278 42.608 180.849 42.608 178.608C42.608 176.826 42.203 174.504 40.772 173.316C40.205 172.83 39.692 172.722 38.963 172.695V184.251ZM55.9266 187.545H52.3626V169.536H55.9266V187.545ZM74.7544 178.554C74.7544 180.876 74.5114 183.36 73.1344 185.304C72.0814 186.789 70.2994 187.842 68.4364 187.842C66.5734 187.842 64.8184 186.789 63.7384 185.304C62.3614 183.414 62.1184 180.822 62.1184 178.554C62.1184 176.232 62.3614 173.721 63.7384 171.777C64.7914 170.265 66.6004 169.266 68.4364 169.266C70.2994 169.266 72.0544 170.292 73.1344 171.777C74.5114 173.667 74.7544 176.286 74.7544 178.554ZM70.9744 178.473C70.9744 176.826 70.7854 172.533 68.4364 172.533C66.0874 172.533 65.8984 176.826 65.8984 178.473C65.8984 180.12 66.0874 184.413 68.4364 184.413C70.7854 184.413 70.9744 180.12 70.9744 178.473ZM91.5822 187.545H87.8022L87.1272 184.521H83.5362L82.8882 187.545H79.3242L83.5362 169.536H87.2622L91.5822 187.545ZM84.0762 181.74H86.5872C86.2092 180.012 85.8312 178.311 85.5612 176.556C85.4532 175.773 85.3452 174.963 85.2642 174.18C85.1022 176.718 84.5892 179.229 84.0762 181.74ZM105.172 183.441V187.167C104.389 187.599 103.687 187.734 102.715 187.734C100.987 187.734 99.6642 187.329 98.4492 186.114C97.1802 184.845 96.0192 182.631 96.0192 178.824C96.0192 177.015 96.2352 173.559 98.6112 171.156C100.096 169.671 101.716 169.347 102.931 169.347C103.741 169.347 104.47 169.536 105.172 169.86V173.532C104.497 172.911 103.768 172.749 103.201 172.749C102.256 172.749 101.635 173.154 101.23 173.559C100.258 174.531 99.7452 176.394 99.7452 178.716C99.7452 179.175 99.7452 182.037 101.014 183.441C101.419 183.9 102.067 184.305 103.039 184.305C103.633 184.305 104.443 184.116 105.172 183.441ZM119.554 172.83H116.773V187.545H113.209V172.83H110.428V169.536H119.554V172.83ZM128.299 187.545H124.735V169.536H128.299V187.545ZM146.614 169.536L141.619 187.545H138.703L133.492 169.536H137.326L139.243 176.502C139.675 178.095 139.945 179.742 140.134 181.389C140.269 179.742 140.458 178.095 140.917 176.502L142.888 169.536H146.614ZM159.016 187.545H151.807V169.536H158.962V172.884H155.371V176.772H158.53V180.174H155.371V184.224H159.016V187.545Z" fill="#EA3800"/>
</svg>
