<svg width="31" height="30" viewBox="0 0 31 30" fill="none" xmlns="http://www.w3.org/2000/svg">
<g clip-path="url(#clip0_228_461)">
<path d="M25.499 23.5451L6.50008 23.5397C6.57452 23.2566 6.70183 23.0913 6.80324 22.9928C7.25311 22.5545 8.11241 22.5454 8.11241 22.5454C8.12158 22.4282 8.14639 22.2692 8.20735 22.0899C8.22785 22.0316 8.30121 21.8239 8.46357 21.5954C8.63619 21.3503 8.95499 20.8986 9.41727 20.8382C9.73607 20.7964 10.0808 20.9463 10.303 21.0693C10.447 21.1491 10.6266 21.1191 10.7356 20.9966C10.7394 20.9923 10.7426 20.9885 10.7464 20.9843C10.8014 20.9222 10.8257 20.8398 10.8138 20.7579C10.8041 20.6915 10.7928 20.6134 10.7804 20.5256C10.7005 19.9717 10.7059 19.9273 10.6822 19.7983C10.6407 19.5767 10.5031 19.315 10.228 18.7927C10.043 18.4405 9.81105 18.0376 9.79756 18.0129C10.1066 18.1805 10.3035 18.3688 10.4287 18.5149C10.6223 18.7419 10.8467 19.1068 11.1445 19.216C11.1898 19.2326 11.2448 19.2471 11.3058 19.2337C11.459 19.201 11.5458 19.0234 11.5879 18.9361C11.6688 18.7718 11.6634 18.6653 11.7028 18.6621C11.7589 18.6578 11.7681 18.8714 11.9509 19.0399C11.9903 19.0758 12.0852 19.163 12.1575 19.1363C12.2465 19.1036 12.2487 18.919 12.2498 18.8687C12.2552 18.5363 12.0313 18.2201 11.8981 18.1259C11.8981 18.1259 11.8662 18.1034 11.87 18.097C11.8781 18.0814 12.0809 18.2345 12.3188 18.2168C12.3862 18.2115 12.4855 18.2045 12.5432 18.1366C12.6241 18.0424 12.5567 17.9118 12.4688 17.5538C12.3728 17.1631 12.3841 17.0437 12.2962 16.8334C12.2519 16.728 12.1753 16.5449 12.0955 16.4641C12.0933 16.462 12.0809 16.4475 12.0831 16.4454C12.0874 16.439 12.1419 16.469 12.4866 16.6905C12.6263 16.781 12.684 16.82 12.7563 16.8045C12.8361 16.789 12.8847 16.7194 12.9003 16.6969C13.0821 16.4342 12.6813 15.5982 12.595 15.4163C12.3107 14.8142 12.0448 14.111 11.9838 13.8268C11.9062 13.9028 11.7977 13.9777 11.6526 14.0194C11.4115 14.0879 11.1769 14.0162 11.1585 14.0018C11.1574 14.0007 11.1553 13.9996 11.1531 13.9996C11.1386 14.0039 11.1736 14.1158 11.1612 14.1923C11.1434 14.302 11.0269 14.3678 10.939 14.416C10.8613 14.4599 10.6741 14.5648 10.461 14.5198C10.2161 14.4695 10.1547 14.2683 9.95507 14.2961C9.93026 14.2993 9.85905 14.3106 9.81644 14.3646C9.76573 14.4294 9.78839 14.5145 9.79864 14.5974C9.81806 14.7687 9.78515 14.9432 9.74578 15.0213C9.61955 15.2739 9.00407 15.3611 8.77967 15.1251C8.60922 14.9448 8.62324 14.5289 8.62324 14.5289C8.48785 14.4733 8.27963 14.3678 8.08005 14.173C7.97863 14.0746 7.67872 13.7727 7.60104 13.2771C7.58162 13.1562 7.53253 12.7479 7.74561 12.3497C7.74561 12.3497 7.86266 12.1292 8.44685 11.5978C8.44685 11.5978 8.44146 11.5801 8.43121 11.5464C8.28664 11.0674 8.26884 11.0117 8.26453 10.9973C8.19602 10.7634 8.2203 10.1485 8.64536 9.72569C8.67718 9.69412 9.12706 9.25688 9.58665 9.33983C9.58665 9.33983 9.61146 9.34411 10.0511 9.47309C10.0306 9.3971 9.99499 9.2237 10.0603 9.02461C10.1234 8.83195 10.2464 8.72009 10.3283 8.64677C10.3893 8.59326 10.6067 8.39952 10.9147 8.38186C11.2114 8.3642 11.5323 8.51405 11.5323 8.51405C11.487 8.25663 11.4536 7.86274 11.576 7.41533C11.5998 7.32702 11.6435 7.18841 11.815 6.82342C11.9099 6.62005 12.1748 6.0549 12.3706 5.76751C12.9629 4.89785 14.2186 4.65701 14.4555 4.61581C14.7791 4.56015 16.0991 4.33163 17.125 5.19273C17.3338 5.3672 17.7529 5.71613 17.9061 6.27326C17.9061 6.27326 17.9309 6.36584 18.0518 7.15255C18.1294 7.14613 18.2422 7.14132 18.3765 7.14613C18.6074 7.1563 18.7228 7.16165 18.8129 7.21196C19.0486 7.34522 19.1489 7.69951 19.1489 7.69951C19.2099 7.64385 19.2989 7.56999 19.4138 7.49721C19.4769 7.45707 19.717 7.30347 19.9608 7.25584C20.2823 7.19323 20.5525 7.32542 20.8212 7.45814C21.394 7.74018 21.7004 8.16618 21.7646 8.2577C21.9 8.45143 22.146 8.86513 22.1897 9.4078C22.2215 9.81079 22.146 10.3529 22.1454 10.3599C22.2188 10.3925 22.3191 10.4418 22.4329 10.5129C22.653 10.6526 23.0678 10.9143 23.2324 11.411C23.2685 11.5207 23.3769 11.8482 23.255 12.1886C23.1488 12.484 22.8629 12.8014 22.8629 12.8014C22.8629 12.8014 22.9664 13.0251 23.0063 13.1685C23.0209 13.2231 23.1099 13.5453 22.9341 13.8418C22.9049 13.8899 22.7539 14.1506 22.4761 14.1977C22.1276 14.2571 21.8018 13.9381 21.688 13.6775H21.6869C21.6092 13.815 21.5192 13.8942 21.4501 13.9402C21.0499 14.2078 20.3939 14.0387 20.1151 13.7155C20.1151 13.7155 20.108 13.7074 19.8556 13.3767C19.8556 13.3767 19.7946 13.4944 19.7509 13.5512C19.7321 13.5758 19.628 13.6807 19.4802 13.7053C19.3458 13.7278 19.238 13.6673 19.0281 13.5463C18.9931 13.526 18.9526 13.5014 18.9084 13.4725C18.9073 13.5586 18.8992 13.6154 18.8992 13.6154C18.8711 13.8032 18.807 13.9376 18.7773 13.9991C18.5944 14.3769 17.9655 15.6335 18.0928 15.9498C18.0982 15.9653 18.1154 16.006 18.1489 16.0135C18.2087 16.028 18.2551 15.9118 18.4137 15.7261C18.5702 15.5436 18.5513 15.6255 18.7789 15.4018C18.7881 15.3938 18.8048 15.3761 18.8129 15.3815C18.8431 15.397 18.7066 15.6656 18.575 16.0526C18.5016 16.2683 18.5556 16.15 18.4261 16.5953C18.39 16.7216 18.3247 16.941 18.3943 17.139C18.4067 17.1716 18.4245 17.2118 18.4596 17.2219C18.5362 17.2444 18.6397 17.1058 18.691 17.0362C18.9224 16.7221 19.0384 16.5642 19.1355 16.3774C19.1355 16.3774 19.1355 16.3271 19.2007 16.2072C19.266 16.0863 19.396 15.8942 19.6571 15.6111C19.6414 15.7898 19.6155 15.9498 19.587 16.0874C19.5578 16.2249 19.5249 16.3416 19.4947 16.4352C19.2816 17.101 19.1754 17.4339 18.9736 17.7486C18.9251 17.8235 18.7999 18.0113 18.8609 18.1815C18.8679 18.2008 18.9024 18.2987 18.9871 18.3282C19.1684 18.3918 19.3793 18.0831 19.4597 18.1323C19.5465 18.1869 19.3032 18.5561 19.4597 18.7889C19.5071 18.8617 19.5951 18.9222 19.6841 18.9356C20.0956 18.9993 20.498 18.0718 20.6636 18.1392C20.8001 18.1954 20.559 18.8419 20.8114 19.0127C20.853 19.0416 20.942 19.0785 21.1486 19.0127C21.8924 18.7756 22.2037 17.8256 22.311 17.8674C22.4011 17.9022 22.2706 18.6091 22.0289 19.299C21.8687 19.7566 21.8239 19.9792 21.7344 20.4234C21.6869 20.653 21.6486 20.8863 21.7829 21.0249C21.9081 21.1534 22.1147 21.1304 22.1282 21.1298C22.4696 21.0886 22.6627 20.6567 22.7053 20.6824C22.7426 20.7049 22.5522 21.0223 22.5149 21.4788C22.5004 21.6591 22.5192 21.7517 22.578 21.8213C22.673 21.9321 22.8575 21.969 22.9864 21.9117C23.1293 21.8491 23.1703 21.6848 23.1984 21.695C23.2275 21.7073 23.1417 21.8775 23.1488 22.1279C23.1488 22.1279 23.1504 22.1729 23.1903 22.4105C23.2022 22.4801 23.2631 22.5309 23.3343 22.5288C23.3996 22.5272 23.4756 22.5261 23.5598 22.5261H23.6127C24.0512 22.5208 24.2815 22.5191 24.5351 22.6176C24.8587 22.7439 25.0637 22.9746 25.2115 23.141C25.3458 23.2941 25.437 23.4375 25.4968 23.5413C25.4979 23.5435 25.499 23.5446 25.5001 23.5467L25.499 23.5451Z" fill="white"/>
</g>
<defs>
<clipPath id="clip0_228_461">
<rect width="30" height="30" fill="white" transform="translate(0.889)"/>
</clipPath>
</defs>
</svg>
