<svg width="31" height="30" viewBox="0 0 31 30" fill="none" xmlns="http://www.w3.org/2000/svg">
<g clip-path="url(#clip0_228_453)">
<path fill-rule="evenodd" clip-rule="evenodd" d="M12.7834 16.7895C15.4867 16.7895 17.6781 14.598 17.6781 11.8947C17.6781 9.19145 15.4867 7 12.7834 7C10.0801 7 7.88867 9.19145 7.88867 11.8947C7.88867 14.598 10.0801 16.7895 12.7834 16.7895ZM12.7834 19.7895C17.1436 19.7895 20.6781 16.2549 20.6781 11.8947C20.6781 7.53459 17.1436 4 12.7834 4C8.42327 4 4.88867 7.53459 4.88867 11.8947C4.88867 16.2549 8.42327 19.7895 12.7834 19.7895Z" fill="white"/>
<path fill-rule="evenodd" clip-rule="evenodd" d="M18.2352 18.9234L24.6309 24.6342C25.2489 25.186 26.1971 25.1323 26.7489 24.5144C27.3006 23.8965 27.247 22.9482 26.629 22.3965L20.2623 16.7116C19.7156 17.5586 19.029 18.3067 18.2352 18.9234ZM17.4751 18.2448C18.2845 17.6458 18.9753 16.8957 19.5059 16.0362L18.295 14.955L16.2969 17.1927L17.4751 18.2448Z" fill="white" fill-opacity="0.8"/>
</g>
<defs>
<clipPath id="clip0_228_453">
<rect width="30" height="30" fill="white" transform="translate(0.5)"/>
</clipPath>
</defs>
</svg>
