<svg width="31" height="30" viewBox="0 0 31 30" fill="none" xmlns="http://www.w3.org/2000/svg">
<g clip-path="url(#clip0_228_416)">
<path d="M13.7617 5.50052C13.7617 4.71937 13.7617 4.3288 13.9237 4.02939C14.0723 3.75457 14.3135 3.53176 14.6109 3.39444C14.935 3.24483 15.3578 3.24483 16.2033 3.24483H20.6878C21.5333 3.24483 21.9561 3.24483 22.2802 3.39444C22.5777 3.53176 22.8188 3.75457 22.9675 4.02939C23.1294 4.3288 23.1294 4.71937 23.1294 5.50052V23.1099C23.1294 23.8911 23.1294 24.2816 22.9675 24.581C22.8188 24.8559 22.5777 25.0787 22.2802 25.216C21.9561 25.3656 21.5333 25.3656 20.6878 25.3656H16.2033C15.3578 25.3656 14.935 25.3656 14.6109 25.216C14.3135 25.0787 14.0723 24.8559 13.9237 24.581C13.7617 24.2816 13.7617 23.8911 13.7617 23.1099V5.50052Z" fill="#D9D9D9"/>
<path d="M12.9705 4.82468L10.5383 5.58163C9.72916 5.83346 9.32459 5.95937 9.06143 6.21496C8.81989 6.44955 8.65906 6.75829 8.60313 7.09475C8.5422 7.46133 8.66487 7.8766 8.91021 8.70715L12.3456 20.3372L12.9269 22.3049V6.07967C12.9269 5.67121 12.9269 5.31883 12.9496 5.02844C12.9549 4.96042 12.9617 4.89246 12.9705 4.82468Z" fill="#D9D9D9" fill-opacity="0.8"/>
<path d="M7.87254 7.79954L6.37062 8.75464C5.65186 9.21172 5.29247 9.44026 5.1016 9.75717C4.92641 10.048 4.84744 10.3895 4.87654 10.7302C4.90826 11.1013 5.1292 11.4713 5.57109 12.2112L12.7005 24.1494L12.2124 22.5306L12.1921 22.5336L8.1608 8.88631C8.12695 8.77167 8.09448 8.66168 8.06409 8.55635C7.99314 8.3107 7.93306 8.0902 7.89163 7.89452C7.88493 7.86294 7.87854 7.83129 7.87254 7.79954Z" fill="#D9D9D9" fill-opacity="0.6"/>
</g>
<defs>
<clipPath id="clip0_228_416">
<rect width="30" height="30" fill="white" transform="translate(0.611328)"/>
</clipPath>
</defs>
</svg>
