<svg width="30" height="30" viewBox="0 0 30 30" fill="none" xmlns="http://www.w3.org/2000/svg">
<path fill-rule="evenodd" clip-rule="evenodd" d="M15.0133 7.59856C16.0285 7.59856 16.8937 7.15285 17.2243 6.52815C17.2471 6.5347 17.2699 6.54135 17.2926 6.5481L17.2932 6.54638L17.3144 6.55464C17.648 6.65516 17.9596 6.77687 18.2437 6.91669L19.4272 7.37776L23.8261 9.85494L22.5084 13.0402L20.0931 12.337L20.4588 23.0577H9.43016L9.85024 12.3535L7.49163 13.0402L6.17395 9.85494L10.5729 7.37776L11.9016 6.86011C12.1134 6.76216 12.3394 6.674 12.5774 6.5968L12.7069 6.54638L12.7101 6.55528C12.7407 6.54606 12.7714 6.53702 12.8024 6.52815C13.1329 7.15285 13.9981 7.59856 15.0133 7.59856Z" fill="#D9D9D9"/>
<path fill-rule="evenodd" clip-rule="evenodd" d="M15.3175 5.07929L15.3581 5.00254L15.9503 3.38419L18.0394 4.1981C18.4143 4.31535 18.7788 4.45641 19.1271 4.62185L20.3773 5.10893L26.8312 8.74337L23.8316 15.9944L22.5363 15.6173L22.8746 25.5356H7.00109L7.38947 15.6389L6.16843 15.9944L3.16879 8.74337L9.62273 5.10893L11.0413 4.55628C11.2974 4.44083 11.5618 4.33821 11.832 4.2482L14.0491 3.38444L14.5815 4.83811L14.7091 5.07929C14.7265 5.08458 14.7462 5.08988 14.7683 5.09485C14.8362 5.11013 14.9189 5.12058 15.0133 5.12058C15.1076 5.12058 15.1904 5.11013 15.2583 5.09485C15.2804 5.08987 15.3001 5.08457 15.3175 5.07929ZM7.49163 13.0401L9.85023 12.3535L9.43016 23.0576H20.4587L20.093 12.337L22.5084 13.0401L23.8261 9.85489L19.4272 7.37771L18.2437 6.91664C17.9596 6.77682 17.648 6.65511 17.3144 6.55459L17.2932 6.54633L17.2926 6.54804C17.2699 6.5413 17.2471 6.53465 17.2243 6.5281C16.8937 7.1528 16.0285 7.59851 15.0133 7.59851C13.9981 7.59851 13.1329 7.1528 12.8023 6.5281C12.7714 6.53697 12.7407 6.54601 12.7101 6.55523L12.7068 6.54633L12.5774 6.59675C12.3394 6.67395 12.1134 6.76211 11.9016 6.86006L10.5729 7.37771L6.17395 9.85489L7.49163 13.0401Z" fill="white" fill-opacity="0.5"/>
<path d="M16.6221 4.96542L17.6757 5.37588C18.03 5.48487 18.369 5.61647 18.687 5.76986L19.9023 6.24333L25.3287 9.29914L23.17 14.5173L21.3147 13.9772L21.6667 24.2966H8.21567L8.6199 13.9962L6.83008 14.5173L4.67142 9.29914L10.0978 6.24333L11.4704 5.7086C11.7055 5.60145 11.9513 5.50586 12.2056 5.42215L13.3781 4.96539L13.5261 5.36958L13.8176 5.92045C13.8317 5.9472 13.9123 6.06076 14.1409 6.17345C14.36 6.28142 14.6612 6.35955 15.0133 6.35955C15.3655 6.35955 15.6667 6.28142 15.8858 6.17345C16.1144 6.06076 16.195 5.9472 16.2091 5.92045L16.4144 5.5325L16.6221 4.96542Z" fill="white" fill-opacity="0.7"/>
<path fill-rule="evenodd" clip-rule="evenodd" d="M15.0133 7.59855C16.0285 7.59855 16.8937 7.15285 17.2243 6.52815C17.2471 6.53471 17.2699 6.54136 17.2926 6.54811L17.2932 6.54638L17.3145 6.55467C17.648 6.65518 17.9594 6.77684 18.2435 6.9166L19.4272 7.37776L23.8261 9.85494L22.5084 13.0402L20.0931 12.337L20.4588 23.0577H9.43016L9.85024 12.3535L7.49163 13.0402L6.17395 9.85494L10.5729 7.37776L11.9017 6.86004C12.1135 6.76214 12.3394 6.67402 12.5773 6.59685L12.7069 6.54638L12.7101 6.55529C12.7407 6.54606 12.7714 6.53702 12.8024 6.52815C13.133 7.15285 13.9981 7.59855 15.0133 7.59855Z" fill="white"/>
</svg>
